<svg width="304" height="305" viewBox="0 0 304 305" fill="none" xmlns="http://www.w3.org/2000/svg">
<circle cx="154" cy="155" r="149.5" fill="white" stroke="black"/>
<circle cx="150" cy="150" r="149.5" fill="white" stroke="black"/>
<path d="M77.6 115.64C79.3067 115.64 80.64 116.12 81.6 117.08C82.6133 118.04 83.12 119.373 83.12 121.08C83.12 121.507 83.0933 121.96 83.04 122.44C82.9867 122.867 82.88 123.24 82.72 123.56C82.0267 123.453 81.2533 123.373 80.4 123.32C79.5467 123.213 78.5333 123.16 77.36 123.16C74.96 123.16 72.56 123.373 70.16 123.8C67.76 124.227 65.4667 124.573 63.28 124.84C60.88 130.493 58.9067 135.8 57.36 140.76C55.8133 145.72 54.6133 150.627 53.76 155.48C51.9467 155.053 50.3467 154.28 48.96 153.16C47.5733 152.04 46.2667 150.467 45.04 148.44C45.4133 147.587 45.8667 146.573 46.4 145.4C46.9333 144.173 47.5733 142.653 48.32 140.84C49.0667 138.973 49.9467 136.733 50.96 134.12C52.0267 131.453 53.28 128.28 54.72 124.6C52.48 123.853 51.0133 122.547 50.32 120.68C50.5867 120.413 51.3333 120.12 52.56 119.8C53.7867 119.427 55.28 119.027 57.04 118.6C57.84 116.52 58.5333 114.68 59.12 113.08C59.7067 111.427 60.24 109.88 60.72 108.44C61.2 106.947 61.6267 105.507 62 104.12C62.4267 102.68 62.8 101.16 63.12 99.56H62.72C60.6933 99.56 59.04 99.08 57.76 98.12C56.5333 97.16 55.92 95.9067 55.92 94.36C55.92 93.9333 55.9733 93.4267 56.08 92.84C56.24 92.2533 56.4267 91.7467 56.64 91.32C57.6533 91.48 58.64 91.5867 59.6 91.64C60.6133 91.6933 61.92 91.72 63.52 91.72C66.88 91.72 70.0267 91.64 72.96 91.48C75.8933 91.2667 78.5333 91.0533 80.88 90.84C83.28 90.6267 85.3333 90.44 87.04 90.28C88.7467 90.0667 90.0533 89.96 90.96 89.96C92.1867 89.96 93.28 90.6 94.24 91.88C95.2 93.16 95.9467 94.9733 96.48 97.32C94.7733 97.16 93.3867 97.0533 92.32 97C91.3067 96.9467 90.4 96.92 89.6 96.92C86.88 96.92 84.3733 97.0533 82.08 97.32C79.84 97.5333 77.7067 97.8 75.68 98.12C75.36 98.6 74.9867 99.2133 74.56 99.96C74.1867 100.707 73.68 101.773 73.04 103.16C72.4 104.493 71.5733 106.253 70.56 108.44C69.6 110.627 68.3733 113.4 66.88 116.76C68.96 116.44 70.9333 116.173 72.8 115.96C74.72 115.747 76.32 115.64 77.6 115.64ZM114.094 116.68C114.628 116.68 115.241 116.787 115.934 117C116.681 117.16 117.348 117.4 117.934 117.72C118.521 117.987 119.001 118.28 119.374 118.6C119.801 118.92 120.014 119.213 120.014 119.48C118.948 121.72 117.961 123.987 117.054 126.28C116.148 128.52 115.374 130.68 114.734 132.76C114.094 134.84 113.588 136.787 113.214 138.6C112.894 140.413 112.734 141.987 112.734 143.32C112.734 144.813 112.894 146.067 113.214 147.08C113.534 148.04 114.068 148.733 114.814 149.16C114.174 149.587 113.348 149.933 112.334 150.2C111.321 150.467 110.414 150.6 109.614 150.6C106.734 150.6 105.294 148.627 105.294 144.68C105.294 141.64 106.308 137.48 108.334 132.2C107.268 134.653 106.041 136.973 104.654 139.16C103.268 141.293 101.854 143.187 100.414 144.84C98.9744 146.493 97.5077 147.853 96.0144 148.92C94.5744 149.933 93.241 150.547 92.0144 150.76C90.041 150.653 88.441 149.72 87.2144 147.96C85.9877 146.147 85.3744 143.853 85.3744 141.08C85.3744 138.093 86.0144 134.947 87.2944 131.64C88.5744 128.333 90.201 125.267 92.1744 122.44C94.201 119.613 96.3877 117.267 98.7344 115.4C101.081 113.48 103.348 112.467 105.534 112.36C106.068 112.52 106.654 112.84 107.294 113.32C107.988 113.8 108.628 114.36 109.214 115C109.854 115.64 110.388 116.307 110.814 117C111.241 117.64 111.481 118.2 111.534 118.68C109.401 119 107.188 120.04 104.894 121.8C102.654 123.56 100.601 125.693 98.7344 128.2C96.921 130.653 95.4277 133.293 94.2544 136.12C93.081 138.947 92.4944 141.587 92.4944 144.04C92.4944 145.053 92.8677 145.693 93.6144 145.96C95.161 145.64 96.9477 144.333 98.9744 142.04C101.001 139.693 103.454 136.093 106.334 131.24C106.868 130.28 107.454 129.213 108.094 128.04C108.788 126.867 109.481 125.64 110.174 124.36C110.868 123.08 111.534 121.8 112.174 120.52C112.868 119.187 113.508 117.907 114.094 116.68ZM151.673 117.16C151.619 118.173 151.433 119.24 151.113 120.36C150.846 121.427 150.499 122.413 150.073 123.32C149.646 124.173 149.193 124.893 148.713 125.48C148.233 126.067 147.779 126.36 147.353 126.36C146.766 126.307 146.419 125.907 146.313 125.16C146.313 125 146.366 124.76 146.473 124.44C146.633 124.067 146.793 123.667 146.953 123.24C147.113 122.813 147.246 122.387 147.353 121.96C147.513 121.533 147.593 121.16 147.593 120.84C147.593 120.093 147.406 119.48 147.033 119C146.713 118.467 146.259 118.2 145.673 118.2C143.539 118.2 141.913 119.533 140.793 122.2C139.673 124.867 139.113 128.787 139.113 133.96C139.113 134.493 139.139 134.813 139.193 134.92C140.313 134.867 141.299 134.84 142.153 134.84C143.059 134.787 143.939 134.76 144.793 134.76C144.846 134.867 144.873 135.08 144.873 135.4C144.873 135.88 144.766 136.227 144.553 136.44C143.326 136.707 142.339 136.947 141.593 137.16C140.899 137.32 140.366 137.48 139.993 137.64C139.619 137.8 139.379 137.987 139.273 138.2C139.219 138.36 139.193 138.6 139.193 138.92C139.193 139.347 139.193 139.773 139.193 140.2C139.246 140.627 139.273 141.16 139.273 141.8C139.273 146.28 138.046 149.88 135.593 152.6C133.193 155.32 129.833 156.893 125.513 157.32C124.766 157.267 123.993 157.053 123.193 156.68C122.393 156.307 121.619 155.827 120.873 155.24C120.179 154.653 119.566 153.987 119.033 153.24C118.499 152.547 118.126 151.827 117.913 151.08C117.913 149.053 118.339 147.133 119.193 145.32C120.046 143.453 121.193 141.827 122.633 140.44C124.126 139 125.859 137.853 127.833 137C129.859 136.093 132.046 135.56 134.393 135.4C134.393 134.067 134.259 132.76 133.993 131.48C133.726 130.2 133.433 128.973 133.113 127.8C132.846 126.573 132.579 125.4 132.313 124.28C132.046 123.107 131.913 121.96 131.913 120.84C131.913 119.4 132.206 117.987 132.793 116.6C133.379 115.16 134.153 113.853 135.113 112.68C136.073 111.453 137.193 110.413 138.473 109.56C139.753 108.707 141.086 108.12 142.473 107.8C143.059 107.96 143.833 108.44 144.793 109.24C145.806 109.987 146.793 110.84 147.753 111.8C148.713 112.76 149.566 113.747 150.313 114.76C151.059 115.72 151.513 116.52 151.673 117.16ZM125.273 153.64C126.553 153.107 127.753 152.333 128.873 151.32C130.046 150.307 131.059 149.16 131.913 147.88C132.766 146.6 133.433 145.24 133.913 143.8C134.446 142.36 134.713 140.947 134.713 139.56C133.646 139.72 132.473 140.227 131.193 141.08C129.913 141.88 128.713 142.867 127.593 144.04C126.473 145.16 125.539 146.333 124.793 147.56C124.046 148.787 123.673 149.853 123.673 150.76C123.673 151.933 124.206 152.893 125.273 153.64ZM156.449 118.36C156.182 118.04 155.942 117.373 155.729 116.36C155.515 115.293 155.409 114.387 155.409 113.64C156.795 113.747 158.129 113.853 159.409 113.96C160.689 114.013 161.862 114.067 162.929 114.12C163.729 112.52 164.582 110.947 165.489 109.4C166.449 107.8 167.355 106.36 168.209 105.08C169.115 103.747 169.942 102.627 170.689 101.72C171.489 100.813 172.102 100.227 172.529 99.96C173.062 99.96 173.729 100.067 174.529 100.28C175.382 100.44 176.235 100.68 177.089 101C177.942 101.267 178.715 101.56 179.409 101.88C180.102 102.2 180.582 102.52 180.849 102.84C179.249 104.867 177.862 106.76 176.689 108.52C175.569 110.227 174.342 112.2 173.009 114.44C174.075 114.44 175.142 114.413 176.209 114.36C177.329 114.307 178.449 114.227 179.569 114.12C179.835 114.387 180.049 114.733 180.209 115.16C180.369 115.533 180.449 115.933 180.449 116.36C177.835 117.32 174.662 117.853 170.929 117.96C169.595 120.52 168.395 123.08 167.329 125.64C166.315 128.147 165.435 130.573 164.689 132.92C163.995 135.267 163.435 137.48 163.009 139.56C162.635 141.64 162.449 143.507 162.449 145.16C162.449 147.507 163.329 148.813 165.089 149.08C166.689 148.867 168.209 148.467 169.649 147.88C171.089 147.293 172.369 146.547 173.489 145.64C173.809 146.12 173.995 146.52 174.049 146.84C173.729 147.32 173.169 147.88 172.369 148.52C171.622 149.16 170.795 149.773 169.889 150.36C168.982 151 168.102 151.533 167.249 151.96C166.395 152.387 165.755 152.627 165.329 152.68C163.995 152.627 162.662 152.333 161.329 151.8C159.995 151.267 158.769 150.6 157.649 149.8C156.582 149 155.702 148.12 155.009 147.16C154.315 146.147 153.969 145.16 153.969 144.2C153.969 142.92 154.129 141.32 154.449 139.4C154.822 137.427 155.329 135.293 155.969 133C156.609 130.707 157.355 128.307 158.209 125.8C159.062 123.293 159.995 120.813 161.009 118.36H156.449Z" fill="#222222"/>
<path d="M100.6 177.64C102.307 177.64 103.64 178.12 104.6 179.08C105.613 180.04 106.12 181.373 106.12 183.08C106.12 183.507 106.093 183.96 106.04 184.44C105.987 184.867 105.88 185.24 105.72 185.56C105.027 185.453 104.253 185.373 103.4 185.32C102.547 185.213 101.533 185.16 100.36 185.16C97.96 185.16 95.56 185.373 93.16 185.8C90.76 186.227 88.4667 186.573 86.28 186.84C83.88 192.493 81.9067 197.8 80.36 202.76C78.8133 207.72 77.6133 212.627 76.76 217.48C74.9467 217.053 73.3467 216.28 71.96 215.16C70.5733 214.04 69.2667 212.467 68.04 210.44C68.4133 209.587 68.8667 208.573 69.4 207.4C69.9333 206.173 70.5733 204.653 71.32 202.84C72.0667 200.973 72.9467 198.733 73.96 196.12C75.0267 193.453 76.28 190.28 77.72 186.6C75.48 185.853 74.0133 184.547 73.32 182.68C73.5867 182.413 74.3333 182.12 75.56 181.8C76.7867 181.427 78.28 181.027 80.04 180.6C80.84 178.52 81.5333 176.68 82.12 175.08C82.7067 173.427 83.24 171.88 83.72 170.44C84.2 168.947 84.6267 167.507 85 166.12C85.4267 164.68 85.8 163.16 86.12 161.56H85.72C83.6933 161.56 82.04 161.08 80.76 160.12C79.5333 159.16 78.92 157.907 78.92 156.36C78.92 155.933 78.9733 155.427 79.08 154.84C79.24 154.253 79.4267 153.747 79.64 153.32C80.6533 153.48 81.64 153.587 82.6 153.64C83.6133 153.693 84.92 153.72 86.52 153.72C89.88 153.72 93.0267 153.64 95.96 153.48C98.8933 153.267 101.533 153.053 103.88 152.84C106.28 152.627 108.333 152.44 110.04 152.28C111.747 152.067 113.053 151.96 113.96 151.96C115.187 151.96 116.28 152.6 117.24 153.88C118.2 155.16 118.947 156.973 119.48 159.32C117.773 159.16 116.387 159.053 115.32 159C114.307 158.947 113.4 158.92 112.6 158.92C109.88 158.92 107.373 159.053 105.08 159.32C102.84 159.533 100.707 159.8 98.68 160.12C98.36 160.6 97.9867 161.213 97.56 161.96C97.1867 162.707 96.68 163.773 96.04 165.16C95.4 166.493 94.5733 168.253 93.56 170.44C92.6 172.627 91.3733 175.4 89.88 178.76C91.96 178.44 93.9333 178.173 95.8 177.96C97.72 177.747 99.32 177.64 100.6 177.64ZM138.369 177.88C138.155 181.187 137.569 184.04 136.609 186.44C135.649 188.787 134.262 190.867 132.449 192.68C130.689 194.44 128.529 196.04 125.969 197.48C123.409 198.92 120.422 200.307 117.009 201.64C117.009 201.96 116.982 202.307 116.929 202.68C116.929 203 116.929 203.347 116.929 203.72C116.929 204.413 116.982 205.133 117.089 205.88C117.195 206.627 117.382 207.32 117.649 207.96C117.915 208.6 118.289 209.133 118.769 209.56C119.249 209.933 119.862 210.12 120.609 210.12C122.049 210.12 123.462 209.8 124.849 209.16C126.235 208.52 127.542 207.747 128.769 206.84C130.049 205.88 131.222 204.867 132.289 203.8C133.409 202.68 134.395 201.667 135.249 200.76C135.782 201.24 136.235 201.693 136.609 202.12C134.209 205.32 131.569 207.987 128.689 210.12C125.862 212.2 123.169 213.533 120.609 214.12C116.929 213.693 114.049 212.36 111.969 210.12C109.942 207.827 108.929 205.08 108.929 201.88C108.929 199.693 109.222 197.48 109.809 195.24C110.449 192.947 111.302 190.76 112.369 188.68C113.489 186.547 114.769 184.547 116.209 182.68C117.702 180.813 119.275 179.187 120.929 177.8C122.635 176.413 124.369 175.32 126.129 174.52C127.942 173.72 129.729 173.32 131.489 173.32C133.942 173.64 136.235 175.16 138.369 177.88ZM132.849 180.52C131.409 180.733 129.915 181.32 128.369 182.28C126.822 183.24 125.355 184.52 123.969 186.12C122.635 187.72 121.409 189.587 120.289 191.72C119.169 193.853 118.289 196.147 117.649 198.6C121.915 196.467 125.462 193.853 128.289 190.76C131.115 187.613 132.635 184.2 132.849 180.52ZM169.673 179.16C169.619 180.173 169.433 181.24 169.113 182.36C168.846 183.427 168.499 184.413 168.073 185.32C167.646 186.173 167.193 186.893 166.713 187.48C166.233 188.067 165.779 188.36 165.353 188.36C164.766 188.307 164.419 187.907 164.313 187.16C164.313 187 164.366 186.76 164.473 186.44C164.633 186.067 164.793 185.667 164.953 185.24C165.113 184.813 165.246 184.387 165.353 183.96C165.513 183.533 165.593 183.16 165.593 182.84C165.593 182.093 165.406 181.48 165.033 181C164.713 180.467 164.259 180.2 163.673 180.2C161.539 180.2 159.913 181.533 158.793 184.2C157.673 186.867 157.113 190.787 157.113 195.96C157.113 196.493 157.139 196.813 157.193 196.92C158.313 196.867 159.299 196.84 160.153 196.84C161.059 196.787 161.939 196.76 162.793 196.76C162.846 196.867 162.873 197.08 162.873 197.4C162.873 197.88 162.766 198.227 162.553 198.44C161.326 198.707 160.339 198.947 159.593 199.16C158.899 199.32 158.366 199.48 157.993 199.64C157.619 199.8 157.379 199.987 157.273 200.2C157.219 200.36 157.193 200.6 157.193 200.92C157.193 201.347 157.193 201.773 157.193 202.2C157.246 202.627 157.273 203.16 157.273 203.8C157.273 208.28 156.046 211.88 153.593 214.6C151.193 217.32 147.833 218.893 143.513 219.32C142.766 219.267 141.993 219.053 141.193 218.68C140.393 218.307 139.619 217.827 138.873 217.24C138.179 216.653 137.566 215.987 137.033 215.24C136.499 214.547 136.126 213.827 135.913 213.08C135.913 211.053 136.339 209.133 137.193 207.32C138.046 205.453 139.193 203.827 140.633 202.44C142.126 201 143.859 199.853 145.833 199C147.859 198.093 150.046 197.56 152.393 197.4C152.393 196.067 152.259 194.76 151.993 193.48C151.726 192.2 151.433 190.973 151.113 189.8C150.846 188.573 150.579 187.4 150.313 186.28C150.046 185.107 149.913 183.96 149.913 182.84C149.913 181.4 150.206 179.987 150.793 178.6C151.379 177.16 152.153 175.853 153.113 174.68C154.073 173.453 155.193 172.413 156.473 171.56C157.753 170.707 159.086 170.12 160.473 169.8C161.059 169.96 161.833 170.44 162.793 171.24C163.806 171.987 164.793 172.84 165.753 173.8C166.713 174.76 167.566 175.747 168.313 176.76C169.059 177.72 169.513 178.52 169.673 179.16ZM143.273 215.64C144.553 215.107 145.753 214.333 146.873 213.32C148.046 212.307 149.059 211.16 149.913 209.88C150.766 208.6 151.433 207.24 151.913 205.8C152.446 204.36 152.713 202.947 152.713 201.56C151.646 201.72 150.473 202.227 149.193 203.08C147.913 203.88 146.713 204.867 145.593 206.04C144.473 207.16 143.539 208.333 142.793 209.56C142.046 210.787 141.673 211.853 141.673 212.76C141.673 213.933 142.206 214.893 143.273 215.64ZM174.449 180.36C174.182 180.04 173.942 179.373 173.729 178.36C173.515 177.293 173.409 176.387 173.409 175.64C174.795 175.747 176.129 175.853 177.409 175.96C178.689 176.013 179.862 176.067 180.929 176.12C181.729 174.52 182.582 172.947 183.489 171.4C184.449 169.8 185.355 168.36 186.209 167.08C187.115 165.747 187.942 164.627 188.689 163.72C189.489 162.813 190.102 162.227 190.529 161.96C191.062 161.96 191.729 162.067 192.529 162.28C193.382 162.44 194.235 162.68 195.089 163C195.942 163.267 196.715 163.56 197.409 163.88C198.102 164.2 198.582 164.52 198.849 164.84C197.249 166.867 195.862 168.76 194.689 170.52C193.569 172.227 192.342 174.2 191.009 176.44C192.075 176.44 193.142 176.413 194.209 176.36C195.329 176.307 196.449 176.227 197.569 176.12C197.835 176.387 198.049 176.733 198.209 177.16C198.369 177.533 198.449 177.933 198.449 178.36C195.835 179.32 192.662 179.853 188.929 179.96C187.595 182.52 186.395 185.08 185.329 187.64C184.315 190.147 183.435 192.573 182.689 194.92C181.995 197.267 181.435 199.48 181.009 201.56C180.635 203.64 180.449 205.507 180.449 207.16C180.449 209.507 181.329 210.813 183.089 211.08C184.689 210.867 186.209 210.467 187.649 209.88C189.089 209.293 190.369 208.547 191.489 207.64C191.809 208.12 191.995 208.52 192.049 208.84C191.729 209.32 191.169 209.88 190.369 210.52C189.622 211.16 188.795 211.773 187.889 212.36C186.982 213 186.102 213.533 185.249 213.96C184.395 214.387 183.755 214.627 183.329 214.68C181.995 214.627 180.662 214.333 179.329 213.8C177.995 213.267 176.769 212.6 175.649 211.8C174.582 211 173.702 210.12 173.009 209.16C172.315 208.147 171.969 207.16 171.969 206.2C171.969 204.92 172.129 203.32 172.449 201.4C172.822 199.427 173.329 197.293 173.969 195C174.609 192.707 175.355 190.307 176.209 187.8C177.062 185.293 177.995 182.813 179.009 180.36H174.449ZM225.454 178.68C225.987 178.68 226.6 178.787 227.294 179C228.04 179.16 228.707 179.4 229.294 179.72C229.88 179.987 230.36 180.28 230.734 180.6C231.16 180.92 231.374 181.213 231.374 181.48C230.307 183.72 229.32 185.987 228.414 188.28C227.507 190.52 226.734 192.68 226.094 194.76C225.454 196.84 224.947 198.787 224.574 200.6C224.254 202.413 224.094 203.987 224.094 205.32C224.094 206.813 224.254 208.067 224.574 209.08C224.894 210.04 225.427 210.733 226.174 211.16C225.534 211.587 224.707 211.933 223.694 212.2C222.68 212.467 221.774 212.6 220.974 212.6C218.094 212.6 216.654 210.627 216.654 206.68C216.654 203.64 217.667 199.48 219.694 194.2C218.627 196.653 217.4 198.973 216.014 201.16C214.627 203.293 213.214 205.187 211.774 206.84C210.334 208.493 208.867 209.853 207.374 210.92C205.934 211.933 204.6 212.547 203.374 212.76C201.4 212.653 199.8 211.72 198.574 209.96C197.347 208.147 196.734 205.853 196.734 203.08C196.734 200.093 197.374 196.947 198.654 193.64C199.934 190.333 201.56 187.267 203.534 184.44C205.56 181.613 207.747 179.267 210.094 177.4C212.44 175.48 214.707 174.467 216.894 174.36C217.427 174.52 218.014 174.84 218.654 175.32C219.347 175.8 219.987 176.36 220.574 177C221.214 177.64 221.747 178.307 222.174 179C222.6 179.64 222.84 180.2 222.894 180.68C220.76 181 218.547 182.04 216.254 183.8C214.014 185.56 211.96 187.693 210.094 190.2C208.28 192.653 206.787 195.293 205.614 198.12C204.44 200.947 203.854 203.587 203.854 206.04C203.854 207.053 204.227 207.693 204.974 207.96C206.52 207.64 208.307 206.333 210.334 204.04C212.36 201.693 214.814 198.093 217.694 193.24C218.227 192.28 218.814 191.213 219.454 190.04C220.147 188.867 220.84 187.64 221.534 186.36C222.227 185.08 222.894 183.8 223.534 182.52C224.227 181.187 224.867 179.907 225.454 178.68ZM263.032 179.16C262.979 180.173 262.792 181.24 262.472 182.36C262.205 183.427 261.859 184.413 261.432 185.32C261.005 186.173 260.552 186.893 260.072 187.48C259.592 188.067 259.139 188.36 258.712 188.36C258.125 188.307 257.779 187.907 257.672 187.16C257.672 187 257.725 186.76 257.832 186.44C257.992 186.067 258.152 185.667 258.312 185.24C258.472 184.813 258.605 184.387 258.712 183.96C258.872 183.533 258.952 183.16 258.952 182.84C258.952 182.093 258.765 181.48 258.392 181C258.072 180.467 257.619 180.2 257.032 180.2C254.899 180.2 253.272 181.533 252.152 184.2C251.032 186.867 250.472 190.787 250.472 195.96C250.472 196.493 250.499 196.813 250.552 196.92C251.672 196.867 252.659 196.84 253.512 196.84C254.419 196.787 255.299 196.76 256.152 196.76C256.205 196.867 256.232 197.08 256.232 197.4C256.232 197.88 256.125 198.227 255.912 198.44C254.685 198.707 253.699 198.947 252.952 199.16C252.259 199.32 251.725 199.48 251.352 199.64C250.979 199.8 250.739 199.987 250.632 200.2C250.579 200.36 250.552 200.6 250.552 200.92C250.552 201.347 250.552 201.773 250.552 202.2C250.605 202.627 250.632 203.16 250.632 203.8C250.632 208.28 249.405 211.88 246.952 214.6C244.552 217.32 241.192 218.893 236.872 219.32C236.125 219.267 235.352 219.053 234.552 218.68C233.752 218.307 232.979 217.827 232.232 217.24C231.539 216.653 230.925 215.987 230.392 215.24C229.859 214.547 229.485 213.827 229.272 213.08C229.272 211.053 229.699 209.133 230.552 207.32C231.405 205.453 232.552 203.827 233.992 202.44C235.485 201 237.219 199.853 239.192 199C241.219 198.093 243.405 197.56 245.752 197.4C245.752 196.067 245.619 194.76 245.352 193.48C245.085 192.2 244.792 190.973 244.472 189.8C244.205 188.573 243.939 187.4 243.672 186.28C243.405 185.107 243.272 183.96 243.272 182.84C243.272 181.4 243.565 179.987 244.152 178.6C244.739 177.16 245.512 175.853 246.472 174.68C247.432 173.453 248.552 172.413 249.832 171.56C251.112 170.707 252.445 170.12 253.832 169.8C254.419 169.96 255.192 170.44 256.152 171.24C257.165 171.987 258.152 172.84 259.112 173.8C260.072 174.76 260.925 175.747 261.672 176.76C262.419 177.72 262.872 178.52 263.032 179.16ZM236.632 215.64C237.912 215.107 239.112 214.333 240.232 213.32C241.405 212.307 242.419 211.16 243.272 209.88C244.125 208.6 244.792 207.24 245.272 205.8C245.805 204.36 246.072 202.947 246.072 201.56C245.005 201.72 243.832 202.227 242.552 203.08C241.272 203.88 240.072 204.867 238.952 206.04C237.832 207.16 236.899 208.333 236.152 209.56C235.405 210.787 235.032 211.853 235.032 212.76C235.032 213.933 235.565 214.893 236.632 215.64Z" fill="#222222"/>
</svg>
